<?xml version="1.0" encoding="utf-8"?>
<svg width="576" height="142" viewBox="0 0 576 142" xmlns="http://www.w3.org/2000/svg">
  <g fill="currentColor" fill-rule="evenodd">
    <path d="M 79.499 141 C 71.088 141 62.928 139.349 55.244 136.093 C 47.841 132.96 41.115 128.417 35.439 122.715 C 29.718 116.983 25.225 110.306 22.087 102.872 C 18.839 95.185 17.173 86.92 17.189 78.573 C 17.189 70.146 18.837 61.97 22.087 54.272 C 25.225 46.838 29.718 40.162 35.439 34.43 C 41.115 28.729 47.841 24.185 55.244 21.052 C 62.928 17.796 71.088 16.145 79.499 16.145 C 87.91 16.145 96.07 17.796 103.754 21.052 C 111.158 24.185 117.884 28.728 123.56 34.43 C 129.281 40.162 133.774 46.839 136.912 54.272 C 140.161 61.97 141.809 70.146 141.809 78.573 C 141.809 86.999 140.161 95.175 136.911 102.873 C 133.784 110.291 129.249 117.03 123.559 122.716 C 117.883 128.418 111.156 132.961 103.753 136.094 C 96.07 139.349 87.91 141 79.499 141 Z M 21.085 78.573 C 21.085 110.842 47.29 137.096 79.499 137.096 C 111.708 137.096 137.912 110.842 137.912 78.573 C 137.912 46.303 111.708 20.049 79.499 20.049 C 47.29 20.049 21.085 46.303 21.085 78.573 Z M 23.635 135.291 C 24.945 134.357 26.09 133.186 27.372 132.211 C 28.716 131.19 30.185 130.382 31.772 129.885 C 33.549 129.329 35.367 129.077 37.217 129.187 C 38.121 129.241 39.034 129.407 39.873 129.774 C 40.609 130.096 41.434 130.542 41.764 131.365 C 41.696 131.365 41.593 131.435 41.532 131.459 L 40.911 131.71 L 38.944 132.467 C 37.763 132.903 36.565 133.278 35.365 133.648 C 36.585 133.348 37.8 133.04 39.002 132.671 L 40.999 132.027 L 41.63 131.811 C 41.695 131.789 41.795 131.73 41.865 131.73 C 41.911 132.028 41.908 132.332 41.857 132.63 C 41.723 133.473 41.308 134.251 40.821 134.919 C 40.263 135.682 39.574 136.333 38.818 136.868 C 37.341 137.902 35.632 138.556 33.843 138.772 C 31.966 138.998 30.021 138.707 28.243 138.054 C 26.561 137.436 24.175 135.791 23.635 135.291 Z M 23.865 129.117 C 20.026 128.764 14.425 123.953 13.965 123.325 C 15.628 122.589 17.145 121.532 18.803 120.782 C 20.54 119.997 22.38 119.548 24.268 119.484 C 26.028 119.425 27.791 119.587 29.478 120.155 C 30.216 120.403 30.945 120.712 31.598 121.161 C 32.297 121.641 33.084 122.322 33.267 123.235 C 30.95 123.658 28.628 123.992 26.283 124.19 C 27.584 124.146 28.888 124.102 30.186 123.982 L 32.358 123.75 C 32.665 123.713 32.993 123.631 33.303 123.631 C 33.295 124.218 33.069 124.784 32.779 125.274 C 31.96 126.659 30.58 127.633 29.179 128.245 C 27.525 128.969 25.648 129.282 23.866 129.118 Z M 14.676 116.829 C 11.147 115.709 6.769 110.079 6.445 109.393 C 8.126 109.039 9.73 108.362 11.408 107.984 C 12.964 107.628 14.57 107.544 16.154 107.737 C 17.939 107.962 19.749 108.463 21.347 109.351 C 22.139 109.792 22.913 110.291 23.553 110.963 C 24.105 111.542 24.694 112.34 24.708 113.203 C 22.444 113.145 20.184 112.977 17.936 112.7 C 18.943 112.885 19.954 113.051 20.967 113.195 C 22.197 113.37 23.435 113.479 24.673 113.582 C 24.566 114.12 24.265 114.596 23.92 114.992 C 22.903 116.155 21.41 116.805 19.969 117.106 C 18.227 117.47 16.376 117.367 14.675 116.828 Z M 3.715 99.196 C 2.517 97.656 1.274 94.721 1.073 93.979 C 2.859 93.987 4.628 93.664 6.414 93.646 C 8.019 93.623 9.619 93.829 11.158 94.296 C 12.109 94.592 13.034 94.964 13.925 95.411 C 14.794 95.839 15.631 96.341 16.397 96.939 C 17.163 97.538 17.904 98.215 18.47 99.011 C 18.725 99.369 18.942 99.754 19.097 100.167 C 19.266 100.617 19.397 101.088 19.31 101.572 C 18.004 101.274 16.708 100.957 15.421 100.589 L 13.302 99.951 L 12.621 99.734 C 12.605 99.729 12.365 99.664 12.365 99.651 C 12.365 99.669 12.622 99.749 12.641 99.757 L 13.328 100.016 C 14.043 100.285 14.762 100.544 15.484 100.793 C 16.71 101.215 17.952 101.58 19.199 101.934 C 18.896 102.647 18.23 103.16 17.568 103.517 C 16.128 104.292 14.413 104.498 12.803 104.369 C 10.932 104.218 9.124 103.619 7.52 102.645 C 6.039 101.744 4.779 100.562 3.716 99.194 Z M 0 78.573 C 1.722 78.933 3.492 78.969 5.217 79.3 C 6.757 79.598 8.251 80.12 9.631 80.89 C 11.292 81.814 12.876 83.033 14.107 84.515 C 14.73 85.265 15.313 86.082 15.698 86.992 C 15.873 87.395 15.996 87.82 16.061 88.255 C 16.125 88.716 16.157 89.18 15.987 89.622 C 13.846 88.632 11.752 87.542 9.713 86.356 C 10.622 86.955 11.544 87.536 12.476 88.098 C 13.57 88.749 14.683 89.37 15.812 89.959 C 15.506 90.419 15.032 90.737 14.545 90.961 C 13.114 91.619 11.419 91.59 9.912 91.255 C 8.108 90.855 6.399 89.981 4.982 88.765 C 4.274 88.154 3.629 87.474 3.057 86.733 C 2.454 85.956 1.956 85.089 1.526 84.199 C 0.678 82.447 0.052 79.338 0 78.573 Z M 1.546 68.874 C 1.051 67.125 1.023 64.207 1.122 63.505 C 2.759 64.158 4.507 64.518 6.151 65.155 C 7.813 65.79 9.352 66.71 10.698 67.875 C 12.04 69.044 13.224 70.378 14.065 71.919 C 14.434 72.596 14.753 73.303 14.915 74.056 C 15.076 74.81 15.159 75.753 14.694 76.428 C 13.632 75.708 12.575 74.984 11.555 74.21 L 9.894 72.915 L 9.365 72.49 C 9.34 72.47 9.166 72.361 9.166 72.329 C 9.166 72.369 9.345 72.491 9.373 72.517 L 9.891 72.981 L 11.488 74.368 C 12.447 75.179 13.451 75.939 14.456 76.698 C 14.13 76.997 13.706 77.185 13.275 77.304 C 11.776 77.717 10.094 77.412 8.674 76.87 C 6.978 76.222 5.413 75.145 4.235 73.819 C 2.976 72.395 2.056 70.703 1.544 68.872 Z M 5.387 53.112 C 5.278 51.166 5.844 48.087 6.083 47.359 C 7.427 48.321 8.922 49.023 10.291 49.945 C 11.695 50.892 12.96 52.041 13.998 53.419 C 15.167 54.971 16.093 56.691 16.687 58.57 C 16.984 59.51 17.2 60.489 17.19 61.486 C 17.183 62.312 17.077 63.296 16.497 63.916 C 14.928 62.149 13.425 60.331 12.016 58.418 C 12.748 59.515 13.48 60.613 14.269 61.664 L 15.614 63.408 L 16.049 63.954 C 16.076 63.987 16.213 64.112 16.213 64.157 C 15.779 64.449 15.252 64.559 14.744 64.578 C 13.19 64.636 11.643 63.931 10.39 63.012 C 8.955 61.961 7.73 60.514 6.905 58.894 C 5.997 57.113 5.499 55.126 5.387 53.113 Z M 10.888 39.806 C 11.152 37.926 12.337 35.092 12.722 34.443 C 12.846 34.567 12.972 34.688 13.1 34.808 C 14.444 36.059 15.951 37.126 17.22 38.459 C 18.383 39.678 19.33 41.077 20.025 42.602 C 20.78 44.259 21.32 46.018 21.454 47.835 C 21.513 48.632 21.512 49.44 21.343 50.226 C 21.175 51.012 20.864 51.936 20.153 52.409 C 18.891 50.397 17.71 48.35 16.64 46.233 C 17.069 47.211 17.516 48.18 17.982 49.14 C 18.549 50.309 19.183 51.447 19.815 52.582 C 19.358 52.757 18.85 52.77 18.37 52.707 C 16.772 52.5 15.312 51.534 14.199 50.431 C 12.906 49.142 11.935 47.566 11.366 45.829 C 10.737 43.881 10.602 41.826 10.886 39.807 Z M 20.163 27.237 C 20.783 25.559 22.495 23.137 23.005 22.605 C 24.019 24.066 25.316 25.333 26.342 26.788 C 27.249 28.073 27.946 29.479 28.379 30.966 C 28.895 32.736 29.15 34.646 28.929 36.475 C 28.822 37.36 28.654 38.244 28.263 39.062 C 27.946 39.725 27.454 40.478 26.709 40.771 C 25.872 38.658 25.129 36.521 24.499 34.346 C 24.726 35.34 24.973 36.331 25.241 37.317 C 25.566 38.513 25.952 39.693 26.345 40.871 C 25.786 40.963 25.201 40.84 24.681 40.644 C 23.208 40.087 22.025 38.928 21.185 37.691 C 20.202 36.242 19.59 34.573 19.403 32.831 C 19.306 31.868 19.323 30.896 19.454 29.936 C 19.576 29.016 19.839 28.109 20.163 27.235 Z M 33.789 13.862 C 34.467 13.123 35.887 11.951 36.048 11.842 C 36.753 13.504 37.777 15.028 38.503 16.683 C 39.158 18.174 39.576 19.749 39.708 21.359 C 39.787 22.338 39.756 23.319 39.67 24.297 C 39.59 25.273 39.397 26.236 39.094 27.167 C 38.815 28.004 38.459 28.847 37.945 29.582 C 37.471 30.259 36.756 31.008 35.878 31.181 C 35.651 29.89 35.461 28.592 35.308 27.289 L 35.091 25.127 C 35.087 25.075 35.021 24.165 35.012 24.165 C 35.002 24.165 35.118 27.109 35.129 27.302 C 35.209 28.61 35.328 29.915 35.484 31.216 C 34.933 31.206 34.403 30.996 33.94 30.727 C 32.548 29.917 31.579 28.521 30.971 27.117 C 30.249 25.452 29.97 23.609 30.127 21.818 C 30.213 20.842 30.413 19.878 30.723 18.948 C 31.034 18.01 31.492 17.105 32.003 16.251 C 32.515 15.395 33.113 14.595 33.788 13.862 Z M 46.373 5.781 C 47.168 5.236 47.999 4.743 48.859 4.306 C 49.174 5.945 49.805 7.513 50.152 9.146 C 50.474 10.665 50.583 12.214 50.411 13.758 C 50.302 14.71 50.104 15.65 49.819 16.565 C 49.546 17.448 49.222 18.318 48.78 19.139 C 48.346 19.947 47.802 20.743 47.143 21.401 C 46.551 21.991 45.718 22.591 44.821 22.603 C 44.906 20.325 45.102 18.053 45.408 15.794 C 44.938 18.025 44.653 20.301 44.446 22.565 C 44.138 22.502 43.848 22.368 43.586 22.203 C 42.927 21.785 42.42 21.166 42.029 20.519 C 41.582 19.78 41.275 18.967 41.082 18.136 C 40.654 16.295 40.77 14.358 41.336 12.557 C 41.905 10.748 42.917 9.138 44.207 7.712 C 44.856 6.995 45.588 6.36 46.374 5.78 Z M 62.589 1.013 C 63.457 0.606 64.354 0.267 65.274 0 C 65.243 1.75 65.526 3.486 65.533 5.241 C 65.539 6.995 65.298 8.736 64.752 10.402 C 64.438 11.361 64.037 12.294 63.558 13.18 C 63.091 14.045 62.583 14.886 61.96 15.647 C 61.38 16.355 60.707 17.028 59.954 17.544 C 59.254 18.025 58.388 18.412 57.524 18.269 C 57.81 17.018 58.144 15.78 58.499 14.549 C 58.814 13.459 59.133 12.363 59.514 11.294 C 59.043 12.418 58.641 13.577 58.245 14.73 C 57.856 15.862 57.496 17.005 57.165 18.156 C 56.819 18.003 56.521 17.752 56.27 17.469 C 55.129 16.179 54.777 14.257 54.79 12.579 C 54.806 10.59 55.36 8.63 56.309 6.894 C 57.231 5.206 58.526 3.794 60.022 2.612 C 60.816 1.985 61.687 1.465 62.588 1.013 Z M 129.682 138.054 C 127.904 138.707 125.959 138.998 124.082 138.772 C 122.327 138.56 120.577 137.91 119.107 136.868 C 118.338 136.331 117.662 135.672 117.104 134.919 C 116.616 134.251 116.202 133.473 116.067 132.63 C 116.02 132.333 116.01 132.027 116.06 131.73 C 116.13 131.73 116.23 131.789 116.295 131.811 L 116.926 132.027 L 118.924 132.671 C 120.126 133.04 121.341 133.348 122.56 133.648 C 121.36 133.278 120.163 132.903 118.982 132.467 L 117.015 131.71 L 116.394 131.459 C 116.333 131.435 116.23 131.365 116.162 131.365 C 116.493 130.542 117.317 130.096 118.053 129.774 C 118.892 129.407 119.805 129.241 120.708 129.187 C 122.558 129.077 124.377 129.329 126.154 129.885 C 127.741 130.382 129.209 131.19 130.552 132.211 C 131.835 133.186 132.979 134.357 134.29 135.291 C 133.749 135.791 131.363 137.436 129.682 138.054 Z M 135.133 129.118 C 133.351 129.282 131.474 128.969 129.819 128.245 C 128.418 127.633 127.038 126.659 126.219 125.274 C 125.93 124.784 125.703 124.218 125.695 123.631 C 126.005 123.631 126.332 123.713 126.64 123.75 L 128.812 123.982 C 130.11 124.102 131.413 124.146 132.715 124.19 C 130.37 123.992 128.048 123.658 125.731 123.235 C 125.913 122.322 126.701 121.641 127.4 121.161 C 128.053 120.712 128.781 120.403 129.52 120.155 C 131.207 119.587 132.969 119.425 134.73 119.484 C 136.618 119.548 138.459 119.997 140.195 120.782 C 141.853 121.532 143.37 122.589 145.033 123.325 C 144.573 123.953 138.972 128.764 135.133 129.117 Z M 144.323 116.828 C 142.622 117.367 140.771 117.47 139.029 117.106 C 137.588 116.805 136.096 116.155 135.078 114.992 C 134.732 114.596 134.432 114.12 134.325 113.582 C 135.563 113.479 136.8 113.37 138.031 113.195 C 139.044 113.051 140.055 112.885 141.062 112.7 C 138.809 112.982 136.556 113.14 134.29 113.203 C 134.304 112.34 134.892 111.542 135.445 110.963 C 136.085 110.291 136.858 109.792 137.651 109.351 C 139.249 108.463 141.059 107.962 142.843 107.737 C 144.428 107.544 146.034 107.628 147.59 107.984 C 149.267 108.362 150.872 109.039 152.553 109.393 C 152.229 110.079 147.851 115.709 144.322 116.829 Z M 154.209 99.195 C 153.146 100.563 151.886 101.745 150.403 102.645 C 148.8 103.623 146.992 104.213 145.121 104.369 C 143.511 104.498 141.796 104.292 140.355 103.517 C 139.694 103.16 139.028 102.647 138.725 101.934 C 139.972 101.58 141.214 101.215 142.441 100.793 L 144.597 100.016 L 145.283 99.757 C 145.303 99.749 145.559 99.669 145.559 99.651 C 145.559 99.664 145.32 99.729 145.304 99.734 L 144.623 99.951 L 142.503 100.589 C 141.216 100.957 139.919 101.274 138.615 101.572 C 138.528 101.088 138.659 100.617 138.828 100.167 C 138.982 99.754 139.199 99.369 139.454 99.011 C 140.019 98.215 140.76 97.538 141.526 96.939 C 142.296 96.346 143.124 95.834 143.998 95.411 C 144.889 94.965 145.815 94.592 146.766 94.296 C 148.304 93.829 149.905 93.623 151.51 93.646 C 153.295 93.664 155.065 93.987 156.85 93.979 C 156.649 94.721 155.406 97.656 154.209 99.196 Z M 157.472 84.201 C 157.042 85.091 156.544 85.958 155.94 86.735 C 155.369 87.476 154.724 88.157 154.016 88.768 C 152.599 89.983 150.89 90.857 149.086 91.257 C 147.579 91.592 145.885 91.621 144.453 90.963 C 143.966 90.739 143.492 90.421 143.186 89.961 C 144.315 89.372 145.427 88.751 146.522 88.1 C 147.454 87.538 148.376 86.957 149.285 86.358 C 147.242 87.548 145.151 88.633 143.011 89.624 C 142.84 89.182 142.872 88.718 142.937 88.257 C 142.997 87.82 143.129 87.397 143.299 86.994 C 143.684 86.084 144.267 85.267 144.89 84.517 C 146.121 83.035 147.705 81.817 149.366 80.892 C 150.746 80.122 152.239 79.6 153.78 79.302 C 155.507 78.969 157.277 78.933 159 78.573 C 158.95 79.338 158.322 82.447 157.474 84.199 Z M 156.382 68.872 C 155.868 70.684 154.968 72.383 153.691 73.819 C 152.512 75.145 150.948 76.222 149.252 76.87 C 147.831 77.412 146.15 77.717 144.65 77.304 C 144.22 77.185 143.796 76.997 143.471 76.698 C 144.475 75.939 145.481 75.179 146.439 74.368 L 148.036 72.981 L 148.553 72.517 C 148.581 72.491 148.761 72.369 148.761 72.329 C 148.761 72.361 148.587 72.47 148.562 72.49 L 148.032 72.915 L 146.373 74.21 C 145.353 74.984 144.296 75.708 143.233 76.428 C 142.768 75.753 142.852 74.81 143.013 74.056 C 143.174 73.303 143.493 72.596 143.863 71.919 C 144.704 70.378 145.888 69.044 147.23 67.875 C 148.576 66.71 150.114 65.79 151.776 65.155 C 153.421 64.518 155.169 64.158 156.806 63.505 C 156.905 64.207 156.877 67.125 156.382 68.874 Z M 153.616 53.113 C 153.503 55.126 153.005 57.113 152.098 58.894 C 151.272 60.514 150.047 61.961 148.612 63.012 C 147.359 63.931 145.812 64.636 144.258 64.578 C 143.75 64.559 143.223 64.449 142.789 64.157 C 142.789 64.112 142.926 63.987 142.953 63.954 L 143.388 63.408 L 144.733 61.664 C 145.523 60.613 146.254 59.515 146.986 58.418 C 145.576 60.331 144.075 62.149 142.505 63.916 C 141.925 63.296 141.82 62.312 141.812 61.486 C 141.802 60.489 142.018 59.51 142.315 58.57 C 142.909 56.691 143.835 54.971 145.004 53.419 C 146.042 52.041 147.307 50.892 148.711 49.945 C 150.08 49.023 151.575 48.321 152.919 47.359 C 153.158 48.087 153.724 51.166 153.616 53.112 Z M 148.116 39.807 C 148.4 41.826 148.265 43.881 147.637 45.829 C 147.069 47.566 146.098 49.143 144.804 50.431 C 143.69 51.534 142.231 52.5 140.634 52.707 C 140.153 52.77 139.645 52.757 139.189 52.582 C 139.82 51.447 140.454 50.309 141.021 49.14 C 141.487 48.18 141.935 47.21 142.363 46.233 C 141.293 48.35 140.113 50.397 138.85 52.409 C 138.139 51.936 137.829 51.012 137.66 50.226 C 137.491 49.44 137.49 48.632 137.549 47.835 C 137.684 46.018 138.223 44.259 138.978 42.602 C 139.673 41.077 140.622 39.678 141.783 38.459 C 143.052 37.126 144.559 36.059 145.903 34.808 C 146.031 34.688 146.157 34.567 146.281 34.443 C 146.666 35.092 147.851 37.926 148.115 39.806 Z M 138.841 27.235 C 139.164 28.109 139.427 29.016 139.55 29.936 C 139.68 30.896 139.697 31.868 139.6 32.831 C 139.413 34.573 138.801 36.242 137.818 37.691 C 136.978 38.928 135.795 40.087 134.322 40.644 C 133.802 40.84 133.218 40.963 132.658 40.871 C 133.051 39.693 133.437 38.513 133.762 37.317 C 134.029 36.331 134.277 35.341 134.505 34.346 C 133.87 36.522 133.132 38.666 132.294 40.771 C 131.549 40.478 131.058 39.725 130.74 39.062 C 130.349 38.244 130.182 37.36 130.075 36.475 C 129.853 34.646 130.11 32.736 130.625 30.966 C 131.058 29.479 131.756 28.073 132.662 26.788 C 133.688 25.333 134.985 24.066 135.999 22.605 C 136.509 23.137 138.222 25.559 138.842 27.237 Z M 125.216 13.862 C 125.896 14.605 126.491 15.395 127.002 16.251 C 127.512 17.106 127.971 18.01 128.281 18.948 C 128.591 19.878 128.791 20.842 128.877 21.818 C 129.034 23.609 128.755 25.452 128.033 27.117 C 127.425 28.521 126.456 29.917 125.065 30.727 C 124.602 30.996 124.071 31.206 123.52 31.216 C 123.671 29.912 123.801 28.611 123.875 27.302 C 123.886 27.109 124.002 24.165 123.993 24.165 C 123.983 24.165 123.917 25.075 123.913 25.127 L 123.696 27.289 C 123.547 28.594 123.349 29.887 123.127 31.181 C 122.248 31.008 121.533 30.259 121.06 29.582 C 120.545 28.847 120.189 28.004 119.91 27.167 C 119.608 26.236 119.414 25.273 119.334 24.297 C 119.248 23.319 119.217 22.338 119.298 21.359 C 119.429 19.749 119.848 18.174 120.502 16.683 C 121.228 15.028 122.252 13.504 122.958 11.842 C 123.119 11.951 124.539 13.123 125.217 13.862 Z M 112.624 5.78 C 113.41 6.36 114.142 6.995 114.791 7.712 C 116.081 9.138 117.093 10.748 117.662 12.557 C 118.228 14.358 118.344 16.295 117.916 18.136 C 117.723 18.967 117.416 19.78 116.969 20.519 C 116.578 21.166 116.071 21.785 115.412 22.203 C 115.15 22.368 114.86 22.502 114.552 22.565 C 114.345 20.301 114.059 18.025 113.59 15.794 C 113.896 18.052 114.092 20.324 114.177 22.602 C 113.28 22.59 112.447 21.99 111.855 21.4 C 111.195 20.742 110.652 19.946 110.219 19.138 C 109.777 18.317 109.452 17.447 109.18 16.564 C 108.897 15.647 108.693 14.707 108.588 13.757 C 108.416 12.213 108.525 10.664 108.847 9.145 C 109.194 7.512 109.825 5.944 110.14 4.305 C 110.313 4.381 111.851 5.207 112.626 5.78 Z M 96.41 1.013 C 97.311 1.465 98.182 1.985 98.976 2.612 C 100.472 3.794 101.767 5.206 102.689 6.894 C 103.638 8.63 104.192 10.59 104.208 12.579 C 104.221 14.257 103.867 16.179 102.728 17.469 C 102.477 17.752 102.18 18.003 101.833 18.156 C 101.501 17.003 101.143 15.863 100.753 14.73 C 100.357 13.577 99.955 12.418 99.484 11.294 C 99.865 12.363 100.184 13.459 100.498 14.549 C 100.859 15.779 101.184 17.02 101.474 18.269 C 100.61 18.412 99.744 18.025 99.044 17.544 C 98.291 17.028 97.618 16.355 97.038 15.647 C 96.415 14.886 95.907 14.045 95.44 13.18 C 94.96 12.294 94.56 11.361 94.246 10.402 C 93.7 8.736 93.459 6.995 93.465 5.241 C 93.471 3.486 93.755 1.75 93.725 0 C 94.094 0.09 95.546 0.58 96.41 1.013 Z M 122.471 79.111 C 122.471 103.185 102.991 122.702 78.962 122.702 C 54.933 122.702 35.452 103.185 35.452 79.111 C 35.452 55.036 54.932 35.519 78.962 35.519 C 102.992 35.519 122.471 55.035 122.471 79.111 Z M 78.396 58.92 C 75.133 56.632 70.903 55.682 65.814 56.093 C 61.066 56.478 55.74 58.077 50.39 60.719 L 50.39 92.429 C 55.469 89.928 60.721 88.47 65.632 88.205 C 70.626 87.935 75.019 88.935 78.422 91.099 Z M 65.012 91.16 C 68.76 90.583 72.202 90.566 75.187 91.096 C 72.533 90.084 69.439 89.595 66.051 89.84 C 57.506 90.458 49.736 94.805 49.736 94.805 L 49.716 93.886 L 49.716 62.429 C 49.136 62.616 48.781 62.794 48.306 63.033 L 48.233 63.069 L 48.233 96.714 C 53.902 93.896 59.687 91.981 65.012 91.16 Z M 64.933 92.729 C 59.355 93.556 53.264 95.545 47.321 98.482 L 46.527 98.872 L 46.514 97.994 L 46.514 65.643 C 45.994 65.836 45.429 66.139 45 66.372 L 45 101 C 50.063 98.273 55.549 96.098 60.924 94.691 C 65.803 93.414 70.583 92.748 75.188 92.7 C 72.213 92.16 68.741 92.164 64.934 92.729 Z M 80.578 91.099 C 83.98 88.935 88.373 87.935 93.368 88.205 C 98.278 88.47 103.531 89.928 108.61 92.429 L 108.61 60.719 C 103.26 58.077 97.934 56.478 93.186 56.093 C 88.097 55.682 83.867 56.632 80.604 58.92 Z M 110.767 96.714 L 110.767 63.069 L 110.694 63.033 C 110.219 62.794 109.864 62.616 109.284 62.429 L 109.284 93.886 L 109.265 94.805 C 109.265 94.805 101.494 90.458 92.949 89.84 C 89.561 89.595 86.467 90.084 83.813 91.096 C 86.797 90.566 90.24 90.583 93.988 91.16 C 99.313 91.981 105.098 93.896 110.767 96.714 Z M 94.066 92.729 C 90.259 92.164 86.787 92.16 83.812 92.7 C 88.416 92.748 93.197 93.414 98.076 94.691 C 103.45 96.098 108.936 98.273 114 101 L 114 66.372 C 113.571 66.139 113.006 65.836 112.486 65.643 L 112.486 97.994 L 112.473 98.872 L 111.679 98.482 C 105.736 95.545 99.645 93.556 94.067 92.729 Z M 76.266 92.436 L 76.267 92.436 L 76.266 92.435 Z M 78.963 93.5 C 79.929 93.5 80.865 93.118 81.656 92.431 C 79.944 92.426 77.674 92.433 76.267 92.436 C 77.054 93.124 77.983 93.5 78.963 93.5 Z M 71.943 101 L 70.592 101 L 69.771 103.748 L 69.771 103.946 L 70.382 103.946 L 70.382 111 L 71.943 111 Z M 77.374 110.088 L 77.374 101.921 C 77.374 101.308 77.101 101.001 76.556 101.001 L 73.824 101.001 C 73.295 101.001 73.03 101.308 73.03 101.921 L 73.03 105.806 C 73.03 106.407 73.295 106.707 73.824 106.707 L 76.047 106.707 L 76.047 109.717 L 74.378 109.717 L 74.378 107.966 L 73.063 107.966 L 73.063 110.087 C 73.063 110.696 73.334 111 73.874 111 L 76.566 111 C 77.103 111 77.371 110.696 77.371 110.087 Z M 74.337 102.284 L 76.046 102.284 L 76.046 105.441 L 74.337 105.441 Z M 82.802 110.088 L 82.802 101.921 C 82.802 101.308 82.53 101.001 81.985 101.001 L 79.253 101.001 C 78.723 101.001 78.458 101.308 78.458 101.921 L 78.458 105.806 C 78.458 106.407 78.723 106.707 79.253 106.707 L 81.475 106.707 L 81.475 109.717 L 79.807 109.717 L 79.807 107.966 L 78.492 107.966 L 78.492 110.087 C 78.492 110.696 78.762 111 79.303 111 L 81.994 111 C 82.532 111 82.8 110.696 82.8 110.087 Z M 79.765 102.284 L 81.474 102.284 L 81.474 105.441 L 79.765 105.441 Z M 89.314 110.087 L 89.314 101.92 C 89.314 101.307 89.049 101 88.517 101 L 85.775 101 C 85.24 101 84.971 101.307 84.971 101.92 L 84.971 110.087 C 84.971 110.696 85.233 111 85.757 111 L 88.517 111 C 89.048 111 89.314 110.696 89.314 110.087 Z M 86.272 102.284 L 88.019 102.284 L 88.019 109.716 L 86.272 109.716 Z M 89.314 107.667 L 98 106.556 L 89.314 105.444 Z M 68.686 105.444 L 60 106.556 L 68.686 107.667 Z" fill-rule="evenodd" style=""/>
    <path d="M 78.462 22 L 79.951 25.992 L 84.385 26.111 L 80.871 28.697 L 82.122 32.762 L 78.462 30.368 L 74.801 32.762 L 76.052 28.697 L 72.538 26.111 L 76.972 25.992 L 78.462 22 M 118.763 38.226 L 116.838 42.28 L 119.923 45.542 L 115.469 44.965 L 113.318 48.905 L 112.491 44.493 L 108.077 43.667 L 112.02 41.518 L 111.442 37.067 L 114.706 40.15 L 118.763 38.226 M 135 79.576 L 131.006 81.065 L 130.886 85.495 L 128.298 81.984 L 124.231 83.234 L 126.626 79.576 L 124.231 75.918 L 128.298 77.169 L 130.886 73.657 L 131.006 78.088 L 135 79.576 M 118.763 118.774 L 114.706 116.851 L 111.442 119.933 L 112.02 115.482 L 108.077 113.333 L 112.491 112.507 L 113.318 108.095 L 115.469 112.035 L 119.923 111.458 L 116.838 114.72 L 118.763 118.774 M 78.462 135 L 76.972 131.009 L 72.538 130.89 L 76.052 128.304 L 74.801 124.238 L 78.462 126.632 L 82.122 124.238 L 80.871 128.303 L 84.385 130.889 L 79.951 131.008 L 78.462 135 M 39.237 118.774 L 41.161 114.72 L 38.077 111.458 L 42.531 112.035 L 44.682 108.095 L 45.509 112.507 L 49.923 113.333 L 45.98 115.482 L 46.558 119.933 L 43.294 116.85 L 39.237 118.774 M 23 79.576 L 26.993 78.088 L 27.113 73.657 L 29.701 77.169 L 33.769 75.918 L 31.374 79.576 L 33.769 83.234 L 29.702 81.984 L 27.114 85.495 L 26.994 81.065 L 23 79.576 M 39.237 38.226 L 43.294 40.149 L 46.558 37.067 L 45.98 41.518 L 49.923 43.667 L 45.509 44.493 L 44.682 48.905 L 42.531 44.965 L 38.077 45.542 L 41.162 42.28 L 39.237 38.226" fill-rule="evenodd" style=""/>
    <path fill-rule="nonzero" d="M236.782153,135.7 C242.51291,135.7 247.694143,134.385066 252.325851,131.755198 C256.957559,129.12533 260.647225,125.435664 263.394848,120.686201 C266.142472,115.936737 267.594787,110.578872 267.751794,104.612603 C267.908801,100.059399 267.987305,96.6444956 267.987305,94.3678933 C268.065808,92.6408157 268.163937,89.2847899 268.281693,84.299816 C268.399448,79.3148421 268.615333,74.4279975 268.929347,69.6392824 C269.164857,64.4580497 271.127446,61.5141674 274.817111,60.8076357 C277.407728,60.258111 278.703036,59.4730757 278.703036,58.4525299 C278.703036,57.5889911 277.564735,57.1572217 275.288132,57.1572217 L275.288132,57.1572217 L271.284453,57.274977 C269.086354,57.4319841 267.241521,57.5104876 265.749954,57.5104876 L265.749954,57.5104876 L256.918307,57.3927323 C254.641705,57.3927323 253.503404,57.8245017 253.503404,58.6880405 C253.503404,59.5515793 254.798712,60.3366145 257.389328,61.0431463 C258.959399,61.5141674 260.136952,62.9468568 260.921987,65.3412144 C261.707022,67.7355719 262.138792,70.5813247 262.217295,73.8784729 C262.531309,85.9680159 262.688316,94.407145 262.688316,99.1958602 C262.688316,108.694787 260.745354,116.172248 256.85943,121.628243 C252.973505,127.084238 247.105366,129.812236 239.255014,129.812236 C231.718675,129.812236 225.713155,127.535633 221.238454,122.982429 C216.763753,118.429224 214.526403,111.599417 214.526403,102.493008 L214.526403,102.493008 L214.526403,69.4037718 C214.526403,67.2841766 215.075928,65.4197179 216.174977,63.8103956 C217.274026,62.2010733 218.373076,61.2394051 219.472125,60.925391 C220.963692,60.4543698 221.984238,60.0618522 222.533763,59.7478381 C223.083287,59.433824 223.35805,59.0413063 223.35805,58.5702852 C223.35805,57.7067464 222.219749,57.274977 219.943146,57.274977 C218.373076,57.274977 217.117019,57.3142288 216.174977,57.3927323 L216.174977,57.3927323 L210.522723,57.5104876 C208.874149,57.5104876 206.793806,57.4319841 204.281693,57.274977 L204.281693,57.274977 L199.218215,57.1572217 C196.941613,57.1572217 195.803312,57.5889911 195.803312,58.4525299 C195.803312,59.4730757 197.09862,60.3366145 199.689236,61.0431463 C201.259307,61.4356639 202.554615,62.3188286 203.575161,63.6926403 C204.595707,65.066452 205.10598,67.0486661 205.10598,69.6392824 L205.10598,69.6392824 L205.10598,105.790156 C205.10598,115.053573 207.814351,122.3544 213.231095,127.69264 C218.647838,133.03088 226.498191,135.7 236.782153,135.7 Z"/>
    <path fill-rule="nonzero" d="M209.10966,87.5380865 C213.191843,87.5380865 217.234775,87.2436983 221.238454,86.6549218 C225.242134,86.0661454 228.617786,85.2222324 231.365409,84.1231831 C232.621466,83.7306654 233.406501,83.3773996 233.720515,83.0633855 C234.034529,82.7493714 234.50555,82.0428396 235.133579,80.9437902 C235.84011,79.2167127 236.546642,77.1167433 237.253174,74.6438822 C237.959706,72.1710212 238.312971,70.4635695 238.312971,69.5215271 C238.312971,68.8934989 238.155964,68.4224778 237.84195,68.1084637 C237.527936,67.7944496 237.135419,67.6374425 236.664397,67.6374425 C236.27188,67.6374425 235.84011,67.7748237 235.369089,68.049586 C234.898068,68.3243484 234.544802,68.6972401 234.309292,69.1682613 C231.561668,74.0354799 228.323398,77.7055198 224.59448,80.1783809 C220.865563,82.651242 216.292732,83.8876725 210.875989,83.8876725 C204.595707,83.8876725 199.002331,82.0232137 194.09586,78.2942962 C189.18939,74.5653787 185.362343,69.6981601 182.614719,63.6926403 C179.867096,57.6871205 178.493284,51.4264643 178.493284,44.9106716 C178.493284,39.1014106 179.867096,33.6257896 182.614719,28.4838086 C185.362343,23.3418277 189.130512,19.2007666 193.919227,16.0606256 C198.707942,12.9204845 204.085434,11.350414 210.051702,11.350414 C213.270347,11.350414 216.273106,11.7036799 219.059982,12.4102116 C221.846857,13.1167433 224.221588,14.0980374 226.184177,15.3540938 C228.068261,16.6886538 229.540202,18.3568537 230.6,20.3586937 C231.659798,22.3605336 232.621466,25.0492794 233.485005,28.424931 C233.799019,29.5239804 234.466299,30.0735051 235.486845,30.0735051 C236.036369,30.0735051 236.527016,29.8968721 236.958786,29.5436063 C237.390555,29.1903404 237.567188,28.7781969 237.488684,28.3071757 C237.410181,25.4025452 237.056915,20.8885925 236.428887,14.7653174 C236.27188,13.666268 235.93824,12.8027292 235.427967,12.174701 C234.917694,11.5466728 234.113033,11.0756516 233.013983,10.7616375 C228.225268,9.58408464 224.555228,8.77942349 222.003864,8.34765409 C219.452499,7.9158847 216.135725,7.7 212.053542,7.7 C204.046182,7.7 196.549095,9.46632935 189.562282,12.998988 C182.575468,16.5316467 177.001717,21.3399877 172.84103,27.424011 C168.680343,33.5080343 166.6,40.2789635 166.6,47.7367985 C166.6,55.5086477 168.582214,62.416958 172.546642,68.4617295 C176.51107,74.5065011 181.751181,79.1970868 188.266973,82.5334867 C194.782766,85.8698865 201.730328,87.5380865 209.10966,87.5380865 Z"/>
    <path d="M 305.25 7.5 L 305.25 135.5 L 303.75 135.5 L 303.75 7.5 Z"/>
    <text font-family="PingFangHK-Thin, PingFang HK" font-size="100" font-weight="300" style="white-space: pre;">
      <tspan x="330" y="106">News</tspan>
    </text>
  </g>
</svg>